<?xml version="1.0" encoding="UTF-8"?>
<svg xmlns="http://www.w3.org/2000/svg" version="1.1" viewBox="0 0 542.3 469.6">
  <defs>
    <style>
      .cls-1 {
        fill: #001357;
      }

      .cls-2 {
        display: none;
      }
    </style>
  </defs>
  <!-- Generator: Adobe Illustrator 28.6.0, SVG Export Plug-In . SVG Version: 1.2.0 Build 709)  -->
  <g>
    <g id="Layer_1">
      <g id="S">
        <path d="M506.7,173.2h-128.9l64.4-111.6L406.7,0H135.6L0,234.8l135.6,234.8h271.1l135.6-234.8-35.6-61.6ZM396.9,451.3h-251l-25-43.3-74-129.7-25-43.3,25-43.3L120.9,62l25-43.3h50l150.7-.7h50l25,43.3-25,43.3h-50l-150.7.7-49.3,86.4h149.3l5,8.6h-168.6l58.9-103,166.1-1h34.6l20.2-35-20.2-35h-34.7l-171.8,1h-34.6l-17.4,30L48.8,205.3l-17.3,30,20.2,35h248.8l-4.6,8h-149.3l49.3,86.4h160.7l-4.9,8.6h-201l-20.2,35,20.2,35h241.4l17.3-30,7.7-13.5,4.7,8.2-25,43.3ZM468,250.3l-84.6,148.1-8.6,14.9h-206.8l-2.9-5,2.9-5h201.1l93.1-163H69l-2.9-5,8.7-15,84.6-148.1,8.6-14.9h17.4l171.8-1h17.2l2.9,5-2.9,5h-17.4l-183.4,1.1-93.1,162.9h393.2l2.9,5-8.7,15Z"/>
      </g>
    </g>
  </g>
</svg>